<?xml version="1.0" encoding="UTF-8" standalone="no"?>
<!DOCTYPE svg PUBLIC "-//W3C//DTD SVG 1.1//EN"
 "http://www.w3.org/Graphics/SVG/1.1/DTD/svg11.dtd">
<!-- Generated by graphviz version 2.40.1 (20161225.0304)
 -->
<!-- Title: snakemake_dag Pages: 1 -->
<svg width="202pt" height="548pt"
 viewBox="0.00 0.00 202.00 548.00" xmlns="http://www.w3.org/2000/svg" xmlns:xlink="http://www.w3.org/1999/xlink">
<g id="graph0" class="graph" transform="scale(1 1) rotate(0) translate(4 544)">
<title>snakemake_dag</title>
<polygon fill="#ffffff" stroke="transparent" points="-4,4 -4,-544 198,-544 198,4 -4,4"/>
<!-- 0 -->
<g id="node1" class="node">
<title>0</title>
<path fill="none" stroke="#59d856" stroke-width="2" stroke-dasharray="5,2" d="M93,-36C93,-36 31,-36 31,-36 25,-36 19,-30 19,-24 19,-24 19,-12 19,-12 19,-6 25,0 31,0 31,0 93,0 93,0 99,0 105,-6 105,-12 105,-12 105,-24 105,-24 105,-30 99,-36 93,-36"/>
<text text-anchor="middle" x="62" y="-15.5" font-family="sans" font-size="10.00" fill="#000000">combine_data</text>
</g>
<!-- 1 -->
<g id="node2" class="node">
<title>1</title>
<path fill="none" stroke="#569ad8" stroke-width="2" stroke-dasharray="5,2" d="M182,-108C182,-108 102,-108 102,-108 96,-108 90,-102 90,-96 90,-96 90,-84 90,-84 90,-78 96,-72 102,-72 102,-72 182,-72 182,-72 188,-72 194,-78 194,-84 194,-84 194,-96 194,-96 194,-102 188,-108 182,-108"/>
<text text-anchor="middle" x="142" y="-87.5" font-family="sans" font-size="10.00" fill="#000000">efetch_sequences</text>
</g>
<!-- 1&#45;&gt;0 -->
<g id="edge1" class="edge">
<title>1&#45;&gt;0</title>
<path fill="none" stroke="#c0c0c0" stroke-width="2" d="M121.8126,-71.8314C112.1486,-63.1337 100.4204,-52.5783 89.9184,-43.1265"/>
<polygon fill="#c0c0c0" stroke="#c0c0c0" stroke-width="2" points="91.9553,-40.251 82.1809,-36.1628 87.2725,-45.454 91.9553,-40.251"/>
</g>
<!-- 2 -->
<g id="node3" class="node">
<title>2</title>
<path fill="none" stroke="#d6d856" stroke-width="2" stroke-dasharray="5,2" d="M102,-252C102,-252 72,-252 72,-252 66,-252 60,-246 60,-240 60,-240 60,-228 60,-228 60,-222 66,-216 72,-216 72,-216 102,-216 102,-216 108,-216 114,-222 114,-228 114,-228 114,-240 114,-240 114,-246 108,-252 102,-252"/>
<text text-anchor="middle" x="87" y="-231.5" font-family="sans" font-size="10.00" fill="#000000">blastp</text>
</g>
<!-- 2&#45;&gt;0 -->
<g id="edge2" class="edge">
<title>2&#45;&gt;0</title>
<path fill="none" stroke="#c0c0c0" stroke-width="2" d="M84.9115,-215.9555C80.5549,-178.3144 70.4707,-91.1867 65.2552,-46.1246"/>
<polygon fill="#c0c0c0" stroke="#c0c0c0" stroke-width="2" points="68.7267,-45.6763 64.1001,-36.1451 61.7732,-46.4812 68.7267,-45.6763"/>
</g>
<!-- 4 -->
<g id="node5" class="node">
<title>4</title>
<path fill="none" stroke="#97d856" stroke-width="2" stroke-dasharray="5,2" d="M144,-180C144,-180 114,-180 114,-180 108,-180 102,-174 102,-168 102,-168 102,-156 102,-156 102,-150 108,-144 114,-144 114,-144 144,-144 144,-144 150,-144 156,-150 156,-156 156,-156 156,-168 156,-168 156,-174 150,-180 144,-180"/>
<text text-anchor="middle" x="129" y="-159.5" font-family="sans" font-size="10.00" fill="#000000">get_id</text>
</g>
<!-- 2&#45;&gt;4 -->
<g id="edge7" class="edge">
<title>2&#45;&gt;4</title>
<path fill="none" stroke="#c0c0c0" stroke-width="2" d="M97.5984,-215.8314C102.2877,-207.7925 107.9028,-198.1666 113.0798,-189.2918"/>
<polygon fill="#c0c0c0" stroke="#c0c0c0" stroke-width="2" points="116.2434,-190.8146 118.2589,-180.4133 110.1969,-187.2875 116.2434,-190.8146"/>
</g>
<!-- 3 -->
<g id="node4" class="node">
<title>3</title>
<path fill="none" stroke="#d89556" stroke-width="2" stroke-dasharray="5,2" d="M98,-396C98,-396 12,-396 12,-396 6,-396 0,-390 0,-384 0,-384 0,-372 0,-372 0,-366 6,-360 12,-360 12,-360 98,-360 98,-360 104,-360 110,-366 110,-372 110,-372 110,-384 110,-384 110,-390 104,-396 98,-396"/>
<text text-anchor="middle" x="55" y="-375.5" font-family="sans" font-size="10.00" fill="#000000">parse_frame_shifts</text>
</g>
<!-- 3&#45;&gt;0 -->
<g id="edge3" class="edge">
<title>3&#45;&gt;0</title>
<path fill="none" stroke="#c0c0c0" stroke-width="2" d="M48.4257,-359.6321C39.3259,-332.5223 24,-280.0309 24,-234 24,-234 24,-234 24,-162 24,-120.3681 39.0328,-74.14 50.1881,-45.567"/>
<polygon fill="#c0c0c0" stroke="#c0c0c0" stroke-width="2" points="53.4578,-46.817 53.9412,-36.2332 46.9632,-44.2055 53.4578,-46.817"/>
</g>
<!-- 5 -->
<g id="node6" class="node">
<title>5</title>
<path fill="none" stroke="#56d8d8" stroke-width="2" stroke-dasharray="5,2" d="M109.5,-324C109.5,-324 64.5,-324 64.5,-324 58.5,-324 52.5,-318 52.5,-312 52.5,-312 52.5,-300 52.5,-300 52.5,-294 58.5,-288 64.5,-288 64.5,-288 109.5,-288 109.5,-288 115.5,-288 121.5,-294 121.5,-300 121.5,-300 121.5,-312 121.5,-312 121.5,-318 115.5,-324 109.5,-324"/>
<text text-anchor="middle" x="87" y="-303.5" font-family="sans" font-size="10.00" fill="#000000">cdhit_filter</text>
</g>
<!-- 3&#45;&gt;5 -->
<g id="edge8" class="edge">
<title>3&#45;&gt;5</title>
<path fill="none" stroke="#c0c0c0" stroke-width="2" d="M63.075,-359.8314C66.6102,-351.8771 70.836,-342.369 74.7456,-333.5723"/>
<polygon fill="#c0c0c0" stroke="#c0c0c0" stroke-width="2" points="77.9532,-334.9729 78.8163,-324.4133 71.5565,-332.1299 77.9532,-334.9729"/>
</g>
<!-- 4&#45;&gt;1 -->
<g id="edge4" class="edge">
<title>4&#45;&gt;1</title>
<path fill="none" stroke="#c0c0c0" stroke-width="2" d="M132.2804,-143.8314C133.6708,-136.131 135.3241,-126.9743 136.8692,-118.4166"/>
<polygon fill="#c0c0c0" stroke="#c0c0c0" stroke-width="2" points="140.3428,-118.8761 138.6754,-108.4133 133.4542,-117.6322 140.3428,-118.8761"/>
</g>
<!-- 5&#45;&gt;2 -->
<g id="edge5" class="edge">
<title>5&#45;&gt;2</title>
<path fill="none" stroke="#c0c0c0" stroke-width="2" d="M87,-287.8314C87,-280.131 87,-270.9743 87,-262.4166"/>
<polygon fill="#c0c0c0" stroke="#c0c0c0" stroke-width="2" points="90.5001,-262.4132 87,-252.4133 83.5001,-262.4133 90.5001,-262.4132"/>
</g>
<!-- 6 -->
<g id="node7" class="node">
<title>6</title>
<path fill="none" stroke="#d85656" stroke-width="2" stroke-dasharray="5,2" d="M92.5,-468C92.5,-468 17.5,-468 17.5,-468 11.5,-468 5.5,-462 5.5,-456 5.5,-456 5.5,-444 5.5,-444 5.5,-438 11.5,-432 17.5,-432 17.5,-432 92.5,-432 92.5,-432 98.5,-432 104.5,-438 104.5,-444 104.5,-444 104.5,-456 104.5,-456 104.5,-462 98.5,-468 92.5,-468"/>
<text text-anchor="middle" x="55" y="-447.5" font-family="sans" font-size="10.00" fill="#000000">get_frame_shifts</text>
</g>
<!-- 6&#45;&gt;3 -->
<g id="edge6" class="edge">
<title>6&#45;&gt;3</title>
<path fill="none" stroke="#c0c0c0" stroke-width="2" d="M55,-431.8314C55,-424.131 55,-414.9743 55,-406.4166"/>
<polygon fill="#c0c0c0" stroke="#c0c0c0" stroke-width="2" points="58.5001,-406.4132 55,-396.4133 51.5001,-406.4133 58.5001,-406.4132"/>
</g>
<!-- 7 -->
<g id="node8" class="node">
<title>7</title>
<path fill="none" stroke="#56d89a" stroke-width="2" stroke-dasharray="5,2" d="M70,-540C70,-540 40,-540 40,-540 34,-540 28,-534 28,-528 28,-528 28,-516 28,-516 28,-510 34,-504 40,-504 40,-504 70,-504 70,-504 76,-504 82,-510 82,-516 82,-516 82,-528 82,-528 82,-534 76,-540 70,-540"/>
<text text-anchor="middle" x="55" y="-519.5" font-family="sans" font-size="10.00" fill="#000000">get_orf</text>
</g>
<!-- 7&#45;&gt;6 -->
<g id="edge9" class="edge">
<title>7&#45;&gt;6</title>
<path fill="none" stroke="#c0c0c0" stroke-width="2" d="M55,-503.8314C55,-496.131 55,-486.9743 55,-478.4166"/>
<polygon fill="#c0c0c0" stroke="#c0c0c0" stroke-width="2" points="58.5001,-478.4132 55,-468.4133 51.5001,-478.4133 58.5001,-478.4132"/>
</g>
</g>
</svg>
